<?xml version="1.0" encoding="utf-8"?>
<!-- Generator: Adobe Illustrator 15.0.2, SVG Export Plug-In . SVG Version: 6.00 Build 0)  -->
<!DOCTYPE svg PUBLIC "-//W3C//DTD SVG 1.1//EN" "http://www.w3.org/Graphics/SVG/1.1/DTD/svg11.dtd">
<svg version="1.1" id="Layer_1" xmlns="http://www.w3.org/2000/svg" xmlns:xlink="http://www.w3.org/1999/xlink" x="0px" y="0px"
	 width="512px" height="512px" viewBox="0 0 512 512" enable-background="new 0 0 512 512" xml:space="preserve">
<path d="M256.006,164.576c50.494,0,91.424,40.936,91.424,91.43s-40.93,91.424-91.424,91.424s-91.43-40.93-91.43-91.424
	S205.512,164.576,256.006,164.576z M256.006,0c94.762,0,177.49,51.48,221.753,128l-218.076,9.203l-3.677-0.057
	c-49.09,0-91.227,29.759-109.362,72.223l-97.396-104.36C95.816,41.347,171.084,0,256.006,0z M512,256.006
	C512,397.394,397.394,512,256.006,512l-27.367-1.443l66.391-142.239c46.468-16.151,79.829-60.34,79.829-112.312
	c0-37.659-17.504-71.229-44.832-93.003l151.07-29.054C500.812,170.227,512,211.811,512,256.006z M0,256.006
	c0-55.152,17.437-106.232,47.104-148.025l90.2,141.749l-0.158,6.276c0,65.325,52.699,118.346,117.906,118.853l-30.977,135.179
	C97.757,494.315,0,386.589,0,256.006z"/>
</svg>
